<svg xmlns="http://www.w3.org/2000/svg" width="200" height="50" viewBox="0 0 200 50">
  <style>
    .logo-text { font-family: Arial, sans-serif; font-weight: bold; }
    .icon { fill: #3498db; }
  </style>
  <g transform="translate(10,35)">
    <path class="icon" d="M15,0c-8.284,0-15,6.716-15,15s6.716,15,15,15s15-6.716,15-15s-6.716-15-15-15zM22.5,16h-6.5v6.5c0,0.552-0.448,1-1,1s-1-0.448-1-1v-6.5h-6.5c-0.552,0-1-0.448-1-1s0.448-1,1-1h6.5v-6.5c0-0.552,0.448-1,1-1s1,0.448,1,1v6.5h6.5c0.552,0,1,0.448,1,1s-0.448,1-1,1z"/>
    <text x="40" y="0" class="logo-text" font-size="24">HealCard</text>
  </g>
</svg> 